<?xml version="1.0" encoding="UTF-8" standalone="no"?>
<!-- Created with Inkscape (http://www.inkscape.org/) -->

<svg
   xmlns:osb="http://www.openswatchbook.org/uri/2009/osb"
   xmlns:dc="http://purl.org/dc/elements/1.1/"
   xmlns:cc="http://creativecommons.org/ns#"
   xmlns:rdf="http://www.w3.org/1999/02/22-rdf-syntax-ns#"
   xmlns:svg="http://www.w3.org/2000/svg"
   xmlns="http://www.w3.org/2000/svg"
   xmlns:sodipodi="http://sodipodi.sourceforge.net/DTD/sodipodi-0.dtd"
   xmlns:inkscape="http://www.inkscape.org/namespaces/inkscape"
   width="66"
   height="66"
   id="svg2"
   version="1.1"
   inkscape:version="0.91 r13725"
   sodipodi:docname="Kiosk.svg"
   inkscape:export-filename="/Users/ckrey/OwnTracksCTRL/ImageSources/Kiosk44.png"
   inkscape:export-xdpi="60"
   inkscape:export-ydpi="60">
  <defs
     id="defs4">
    <marker
       inkscape:stockid="EmptyTriangleInS"
       orient="auto"
       refY="0"
       refX="0"
       id="EmptyTriangleInS"
       style="overflow:visible">
      <path
         id="path4537"
         d="m 5.77,0 -8.65,5 0,-10 8.65,5 z"
         style="fill:#ffffff;fill-rule:evenodd;stroke:#000000;stroke-width:1pt"
         transform="matrix(-0.2,0,0,-0.2,0.6,0)"
         inkscape:connector-curvature="0" />
    </marker>
    <linearGradient
       id="linearGradient10296"
       osb:paint="solid">
      <stop
         style="stop-color:#000000;stop-opacity:1;"
         offset="0"
         id="stop10298" />
    </linearGradient>
    <marker
       inkscape:stockid="SemiCircleOut"
       orient="auto"
       refY="0"
       refX="0"
       id="SemiCircleOut"
       style="overflow:visible">
      <path
         id="path4561"
         d="m -2.5,-0.80913858 c 0,2.75999998 -2.24,4.99999998 -5,4.99999998 l 0,-10 c 2.76,0 5,2.24 5,5.00000002 z"
         style="fill-rule:evenodd;stroke:#000000;stroke-width:1pt"
         transform="matrix(0.6,0,0,0.6,4.2752958,0.4580676)"
         inkscape:connector-curvature="0" />
    </marker>
    <marker
       inkscape:stockid="RazorWire"
       id="RazorWire"
       refX="0"
       refY="0"
       orient="auto"
       style="overflow:visible">
      <path
         id="path4612"
         transform="scale(0.8,0.8)"
         style="fill:#808080;fill-opacity:1;fill-rule:evenodd;stroke:#000000;stroke-width:0.1pt"
         d="m 0.02272727,-0.74009011 0,1.4375 -7.78124997,2.31250001 18.4374997,0 -7.1874997,-2.31250001 0,-1.4375 7.2499997,-2.15624999 -18.4687497,0 7.74999997,2.15624999 z"
         inkscape:connector-curvature="0" />
    </marker>
    <marker
       inkscape:stockid="Tail"
       orient="auto"
       refY="0"
       refX="0"
       id="Tail"
       style="overflow:visible">
      <g
         id="g4416"
         transform="scale(-1.2,-1.2)">
        <path
           id="path4418"
           d="M -3.8048674,-3.9585227 0.54352094,0"
           style="fill:none;stroke:#000000;stroke-width:0.80000001;stroke-linecap:round"
           inkscape:connector-curvature="0" />
        <path
           id="path4420"
           d="M -1.2866832,-3.9585227 3.0617053,0"
           style="fill:none;stroke:#000000;stroke-width:0.80000001;stroke-linecap:round"
           inkscape:connector-curvature="0" />
        <path
           id="path4422"
           d="M 1.3053582,-3.9585227 5.6537466,0"
           style="fill:none;stroke:#000000;stroke-width:0.80000001;stroke-linecap:round"
           inkscape:connector-curvature="0" />
        <path
           id="path4424"
           d="M -3.8048674,4.1775838 0.54352094,0.21974226"
           style="fill:none;stroke:#000000;stroke-width:0.80000001;stroke-linecap:round"
           inkscape:connector-curvature="0" />
        <path
           id="path4426"
           d="M -1.2866832,4.1775838 3.0617053,0.21974226"
           style="fill:none;stroke:#000000;stroke-width:0.80000001;stroke-linecap:round"
           inkscape:connector-curvature="0" />
        <path
           id="path4428"
           d="M 1.3053582,4.1775838 5.6537466,0.21974226"
           style="fill:none;stroke:#000000;stroke-width:0.80000001;stroke-linecap:round"
           inkscape:connector-curvature="0" />
      </g>
    </marker>
    <marker
       inkscape:stockid="Arrow2Send"
       orient="auto"
       refY="0"
       refX="0"
       id="Arrow2Send"
       style="overflow:visible">
      <path
         id="path4413"
         style="fill-rule:evenodd;stroke-width:0.625;stroke-linejoin:round"
         d="M 8.7185878,4.0337352 -2.2072895,0.01601326 8.7185884,-4.0017078 c -1.7454984,2.3720609 -1.7354408,5.6174519 -6e-7,8.035443 z"
         transform="matrix(-0.3,0,0,-0.3,0.69,0)"
         inkscape:connector-curvature="0" />
    </marker>
    <marker
       inkscape:stockid="Arrow1Sstart"
       orient="auto"
       refY="0"
       refX="0"
       id="Arrow1Sstart"
       style="overflow:visible">
      <path
         id="path4392"
         d="M 0,0 5,-5 -12.5,0 5,5 0,0 z"
         style="fill-rule:evenodd;stroke:#000000;stroke-width:1pt"
         transform="matrix(0.2,0,0,0.2,1.2,0)"
         inkscape:connector-curvature="0" />
    </marker>
    <marker
       inkscape:stockid="Arrow1Send"
       orient="auto"
       refY="0"
       refX="0"
       id="Arrow1Send"
       style="overflow:visible">
      <path
         id="path4395"
         d="M 0,0 5,-5 -12.5,0 5,5 0,0 z"
         style="fill-rule:evenodd;stroke:#000000;stroke-width:1pt"
         transform="matrix(-0.2,0,0,-0.2,-1.2,0)"
         inkscape:connector-curvature="0" />
    </marker>
    <marker
       inkscape:stockid="Arrow2Sstart"
       orient="auto"
       refY="0"
       refX="0"
       id="Arrow2Sstart"
       style="overflow:visible">
      <path
         id="path4410"
         style="fill-rule:evenodd;stroke-width:0.625;stroke-linejoin:round"
         d="M 8.7185878,4.0337352 -2.2072895,0.01601326 8.7185884,-4.0017078 c -1.7454984,2.3720609 -1.7354408,5.6174519 -6e-7,8.035443 z"
         transform="matrix(0.3,0,0,0.3,-0.69,0)"
         inkscape:connector-curvature="0" />
    </marker>
    <marker
       inkscape:stockid="Arrow2Lend"
       orient="auto"
       refY="0"
       refX="0"
       id="Arrow2Lend"
       style="overflow:visible">
      <path
         id="path4401"
         style="fill-rule:evenodd;stroke-width:0.625;stroke-linejoin:round"
         d="M 8.7185878,4.0337352 -2.2072895,0.01601326 8.7185884,-4.0017078 c -1.7454984,2.3720609 -1.7354408,5.6174519 -6e-7,8.035443 z"
         transform="matrix(-1.1,0,0,-1.1,-1.1,0)"
         inkscape:connector-curvature="0" />
    </marker>
    <marker
       inkscape:stockid="EmptyTriangleOutS"
       orient="auto"
       refY="0"
       refX="0"
       id="EmptyTriangleOutS"
       style="overflow:visible">
      <path
         id="path4546"
         d="m 5.77,0 -8.65,5 0,-10 8.65,5 z"
         style="fill:#ffffff;fill-rule:evenodd;stroke:#000000;stroke-width:1pt"
         transform="matrix(0.2,0,0,0.2,-0.6,0)"
         inkscape:connector-curvature="0" />
    </marker>
    <marker
       inkscape:stockid="EmptyTriangleOutL"
       orient="auto"
       refY="0"
       refX="0"
       id="EmptyTriangleOutL"
       style="overflow:visible">
      <path
         id="path4540"
         d="m 5.77,0 -8.65,5 0,-10 8.65,5 z"
         style="fill:#ffffff;fill-rule:evenodd;stroke:#000000;stroke-width:1pt"
         transform="matrix(0.8,0,0,0.8,-4.8,0)"
         inkscape:connector-curvature="0" />
    </marker>
    <marker
       inkscape:stockid="EmptyTriangleOutM"
       orient="auto"
       refY="0"
       refX="0"
       id="EmptyTriangleOutM"
       style="overflow:visible">
      <path
         id="path4543"
         d="m 5.77,0 -8.65,5 0,-10 8.65,5 z"
         style="fill:#ffffff;fill-rule:evenodd;stroke:#000000;stroke-width:1pt"
         transform="matrix(0.4,0,0,0.4,-1.8,0)"
         inkscape:connector-curvature="0" />
    </marker>
    <marker
       inkscape:stockid="TriangleOutL"
       orient="auto"
       refY="0"
       refX="0"
       id="TriangleOutL"
       style="overflow:visible">
      <path
         id="path4522"
         d="m 5.77,0 -8.65,5 0,-10 8.65,5 z"
         style="fill-rule:evenodd;stroke:#000000;stroke-width:1pt"
         transform="scale(0.8,0.8)"
         inkscape:connector-curvature="0" />
    </marker>
    <marker
       inkscape:stockid="Arrow1Mend"
       orient="auto"
       refY="0"
       refX="0"
       id="Arrow1Mend"
       style="overflow:visible">
      <path
         id="path4389"
         d="M 0,0 5,-5 -12.5,0 5,5 0,0 z"
         style="fill-rule:evenodd;stroke:#000000;stroke-width:1pt"
         transform="matrix(-0.4,0,0,-0.4,-4,0)"
         inkscape:connector-curvature="0" />
    </marker>
    <marker
       inkscape:stockid="Arrow1Lstart"
       orient="auto"
       refY="0"
       refX="0"
       id="Arrow1Lstart"
       style="overflow:visible">
      <path
         id="path4380"
         d="M 0,0 5,-5 -12.5,0 5,5 0,0 z"
         style="fill-rule:evenodd;stroke:#000000;stroke-width:1pt"
         transform="matrix(0.8,0,0,0.8,10,0)"
         inkscape:connector-curvature="0" />
    </marker>
  </defs>
  <sodipodi:namedview
     id="base"
     pagecolor="#ffffff"
     bordercolor="#666666"
     borderopacity="1.0"
     inkscape:pageopacity="0"
     inkscape:pageshadow="2"
     inkscape:zoom="1.4142136"
     inkscape:cx="147.50905"
     inkscape:cy="470.09272"
     inkscape:document-units="px"
     inkscape:current-layer="layer1"
     showgrid="true"
     inkscape:window-width="1398"
     inkscape:window-height="856"
     inkscape:window-x="277"
     inkscape:window-y="98"
     inkscape:window-maximized="0"
     inkscape:showpageshadow="true">
    <inkscape:grid
       type="xygrid"
       id="grid2987"
       empspacing="5"
       visible="true"
       enabled="true"
       snapvisiblegridlinesonly="true"
       spacingx="1px"
       spacingy="1px" />
  </sodipodi:namedview>
  <metadata
     id="metadata7">
    <rdf:RDF>
      <cc:Work
         rdf:about="">
        <dc:format>image/svg+xml</dc:format>
        <dc:type
           rdf:resource="http://purl.org/dc/dcmitype/StillImage" />
        <dc:title />
      </cc:Work>
    </rdf:RDF>
  </metadata>
  <g
     inkscape:label="Ebene 1"
     inkscape:groupmode="layer"
     id="layer1"
     transform="translate(0,-2038.7244)">
    <rect
       style="fill:none;stroke:#000000;stroke-width:4;stroke-linecap:butt;stroke-linejoin:miter;stroke-miterlimit:4;stroke-opacity:1;stroke-dasharray:none"
       id="rect9563"
       width="56"
       height="35"
       x="5"
       y="6"
       transform="translate(0,2038.7244)" />
    <path
       style="fill:none;stroke:#000000;stroke-width:4;stroke-linecap:butt;stroke-linejoin:miter;stroke-opacity:1;stroke-miterlimit:4;stroke-dasharray:none"
       d="m 34,43 c 0,13 0,13 0,13 l 0,0 0,0"
       id="path10181"
       inkscape:connector-curvature="0"
       transform="translate(0,2038.7244)" />
    <path
       sodipodi:type="arc"
       style="fill:#000000;fill-opacity:1;stroke:#000000;stroke-width:4.00131369;stroke-linecap:round;stroke-linejoin:miter;stroke-miterlimit:0;stroke-opacity:1;stroke-dasharray:none"
       id="path10183"
       sodipodi:cx="35"
       sodipodi:cy="55"
       sodipodi:rx="17.023724"
       sodipodi:ry="3.2197099"
       d="M 52.010387,54.87258 A 17.023724,3.2197099 0 0 1 35.933168,58.214869 17.023724,3.2197099 0 0 1 18.018088,55.22552 17.023724,3.2197099 0 0 1 33.548639,51.792013 17.023724,3.2197099 0 0 1 51.937625,54.67659"
       transform="matrix(1,0,0,0.99934357,-0.97627645,2038.9781)"
       sodipodi:start="6.2435999"
       sodipodi:end="12.465754"
       sodipodi:open="true" />
  </g>
</svg>
